<svg xmlns="http://www.w3.org/2000/svg" xmlns:xlink="http://www.w3.org/1999/xlink" version="1.1" x="0px" y="0px" viewBox="0 0 100 125" enable-background="new 0 0 100 100" xml:space="preserve"><g display="none"><rect x="-900.877" y="-757.172" display="inline" fill="#000000" width="1370.931" height="1263.231"/></g><g><g><g><path d="M24.445,42.233h1.809V21.556c0-4.669,3.799-8.467,8.467-8.467h31.045v-0.641c0-3.031-2.467-5.498-5.499-5.498H24.445     c-3.031,0-5.498,2.467-5.498,5.498v24.287C18.948,39.766,21.414,42.233,24.445,42.233z" style="fill:#5A5A5A;"/><path d="M66.673,52.319h4.85c3.031,0,5.499-2.467,5.499-5.498V22.535c0-3.032-2.467-5.499-5.499-5.499H35.7     c-3.031,0-5.499,2.467-5.499,5.499v24.286c0,3.032,2.467,5.498,5.499,5.498h17.082l0.439,0.467     c2.457,2.61,5.061,5.599,6.492,7.265L66.673,52.319z" style="fill:#5A5A5A;"/></g><g><path d="M25.629,77.294c4.356,0,7.901-3.544,7.901-7.901c0-4.357-3.545-7.901-7.901-7.901s-7.901,3.544-7.901,7.901     C17.728,73.749,21.273,77.294,25.629,77.294z" style="fill:#5A5A5A;"/><path d="M29.385,80.719h-7.511c-6.548,0-11.876,5.327-11.876,11.875V95h3.571H37.69h3.57v-2.406     C41.261,86.046,35.933,80.719,29.385,80.719z" style="fill:#5A5A5A;"/><path d="M74.341,62.162c-4.356,0-7.901,3.544-7.901,7.901c0,4.357,3.545,7.902,7.901,7.902c4.356,0,7.901-3.545,7.901-7.902     C82.242,65.707,78.697,62.162,74.341,62.162z" style="fill:#5A5A5A;"/><path d="M78.096,81.389h-7.511c-6.548,0-11.876,5.327-11.876,11.875V95h3.571h24.122h3.571v-1.735     C89.972,86.716,84.645,81.389,78.096,81.389z" style="fill:#5A5A5A;"/></g></g></g></svg>