<svg xmlns="http://www.w3.org/2000/svg" xmlns:xlink="http://www.w3.org/1999/xlink" version="1.1" x="0px" y="0px" viewBox="0 0 100 125" enable-background="new 0 0 100 100" xml:space="preserve"><g><path d="M21.016,60.005c-0.621-2.399-0.951-4.914-0.951-7.504c0-13.59,9.086-25.092,21.5-28.766v-7.242   c-16.336,3.843-28.5,18.5-28.5,36.008c0,3.965,0.631,7.781,1.785,11.363L21.016,60.005z" style="fill:#5A5A5A;"/><path d="M58.564,23.735c12.414,3.674,21.5,15.176,21.5,28.766c0,2.586-0.329,5.098-0.947,7.493l6.123,3.987   c1.179-3.615,1.824-7.472,1.824-11.48c0-17.508-12.164-32.166-28.5-36.008V23.735z" style="fill:#5A5A5A;"/><path d="M70.355,74.574c-5.346,4.918-12.473,7.927-20.291,7.927c-7.817,0-14.943-3.008-20.289-7.925l-6.119,3.831   c6.714,6.844,16.063,11.094,26.408,11.094c10.299,0,19.611-4.21,26.319-11L70.355,74.574z" style="fill:#5A5A5A;"/></g><polygon points="87.975,71.73 69.168,59.48 73.826,52.182 53.885,53.689 60.914,72.413 65.401,65.382 84.154,77.596 " style="fill:#5A5A5A;"/><polygon points="53.564,32.499 53.564,10.499 46.564,10.499 46.564,32.499 38.064,32.499 50.064,48.499 62.064,32.499 " style="fill:#5A5A5A;"/><polygon points="31.026,59.638 12.025,71.53 15.738,77.464 34.793,65.538 39.421,72.789 46.449,54.065 26.507,52.557 " style="fill:#5A5A5A;"/></svg>